<svg id="FRONT-JERSEY" xmlns="http://www.w3.org/2000/svg" viewBox="0 0 533.97 736.69"><defs><style>.cls-1{fill:#f9ed32;}.cls-1,.cls-2{fill-rule:evenodd;}.cls-2{fill:#27aae1;}</style></defs><path id="BASE" class="cls-1" d="M571.48,919.94l-.17-492.18c-43-18-157.74-44.65-116.4-222.76l-57.45-21.45c6.55,84.29-36.38,126-91.79,145.67-59.36-21.33-100.67-69.17-91.24-146l-57.12,21.33c10.1,59.78,32.31,168.87-116.79,223.19l.17,492.18Z" transform="translate(-39.02 -183.24)"/><path id="PATTERN" class="cls-2" d="M208.67,185.39l5.76-2.15c-.09.73-.16,1.44-.24,2.15ZM565.5,551.59H513.19V603.9H565.5ZM509.77,919.94v-2.15H458.6V865.47H407.42V813.16H356.24V760.85H305.07V708.53H253.89V656.22H202.72V603.9H151.54V551.59H202.3V499.28H151.13V447H100V397.72c-14.28,10-31.53,19.24-52.31,27.36V447H98.81v52.32H150v52.31H99.23V603.9H150.4v52.32h51.18v52.31h51.18v52.32h51.17v52.31h51.18v52.31h51.17v52.32h51.18v2.15Zm-466.27,0H95.81v-2.15H43.5ZM448.79,237.71H412.7V189.24l-10.3-3.85h-4.81c1.37,19.71,0,37.06-3.59,52.32h17.56V290h35A250.18,250.18,0,0,1,448.79,237.71ZM46.5,551.59H98.81V499.28H46.5ZM216.89,237.71H205.72V186.5l-48.41,18.07c1.67,9.86,3.66,21.06,5.16,33.14h42.11V290h40A117.86,117.86,0,0,1,216.89,237.71ZM355.11,865.47H303.93V813.16H252.76V760.85H201.58V708.53H150.4V656.22H99.23V603.9H46.91v52.32H98.09v52.31h51.18v52.32h51.17v52.31h51.18v52.31h51.17v52.32H354v2.15h52.31v-2.15H355.11Zm-207,0H97V813.16H44.64v52.31H95.81v52.32H147v2.15H199.3v-2.15H148.13Zm158.8-470.82h51.18V447h51.17v52.32h51.18v52.31H409.7V603.9h51.17v52.32h51.18v52.31h52.31V656.22H513.19V603.9H462V551.59h50.76V499.28H461.6V447H410.42V394.65H359.24V342.34H308.07v-14l-2.4.87c-18.8-6.75-35.78-16.17-49.91-28.32v41.44h51.17ZM202.3,499.28h51.18v52.31H202.72V603.9h51.17v52.32h51.18v52.31h51.17v52.32h51.18v52.31H458.6v52.31h51.17v52.32h52.32V865.47H510.91V813.16H459.73V760.85H408.56V708.53H357.38V656.22H306.21V603.9H255V551.59h50.76V499.28H254.62V447H203.44V394.65H152.27V342.34h-3c-9.29,18.5-23.59,36.35-45.06,52.31h46.93V447H202.3Zm1.14-104.63h51.18V447h51.17v52.32H357v52.31H306.21V603.9h51.17v52.32h51.18v52.31h51.17v52.32h51.18v52.31h52.31V760.85H512.05V708.53H460.87V656.22H409.7V603.9H358.52V551.59h50.76V499.28H358.11V447H306.93V394.65H255.76V342.34H204.58V290H163.85a149.73,149.73,0,0,1-11.58,45.91v6.41h51.17Zm207,0H461.6V447h51.17v52.32h52.32V447H513.91v-44.7c-3.91-2.33-7.81-4.86-11.65-7.61H462.73V350q-1.94-3.69-3.71-7.64H411.56V290H367.23q-3.81,4.26-8,8.12v44.2h51.18ZM251.62,865.47H200.44V813.16H149.27V760.85H98.09V708.53H45.78v52.32H97v52.31h51.18v52.31H199.3v52.32h51.18v2.15h52.31v-2.15H251.62Z" transform="translate(-39.02 -183.24)"/><g id="TRIMMING"><path d="M404.29,200.31c0,21.2-3.32,39.68-9.39,55.71a120.28,120.28,0,0,1-25.59,40.84,133.74,133.74,0,0,1-23.83,19.7A176.6,176.6,0,0,1,308,334.78l-1.93.68-1.92-.69a170.14,170.14,0,0,1-42.68-22.21,131.56,131.56,0,0,1-32.41-33.44A123.09,123.09,0,0,1,215,250.5a141.57,141.57,0,0,1-7.22-45.79,179,179,0,0,1,1-19.05l6-2.25,5.68.7a168.42,168.42,0,0,0-1.3,20.6c0,17.48,3,33,8.31,46.76a111.76,111.76,0,0,0,22.78,36.1,128.15,128.15,0,0,0,21.86,18.52,160.51,160.51,0,0,0,33.92,17.21,159.3,159.3,0,0,0,37-19,114.12,114.12,0,0,0,29.73-30.18A112.05,112.05,0,0,0,386,247c4.42-13.47,6.89-28.92,6.89-46.71q0-7.77-.64-16.15l5.7-.45h0l5.89,2.2Q404.29,193.32,404.29,200.31Zm55.58,5.38-11.07-3c-1.56,9.22-3.63,20.83-5.12,32.23a283.08,283.08,0,0,0-2.58,36.46A176.07,176.07,0,0,0,447.72,321a141.64,141.64,0,0,0,25.58,49.22,165.86,165.86,0,0,0,31.51,29.88c17,12.47,40.06,24.37,66.21,33.9l2-11.41c-28.46-10.37-50.38-22.69-67.19-36.15s-28.53-28-36.66-43.13a132.13,132.13,0,0,1-11.83-30.69,168.41,168.41,0,0,1-4.76-41.18,271.52,271.52,0,0,1,2.48-35c1.45-11.08,3.28-21.44,4.85-30.73Zm-307.74,0c1.57,9.29,3.4,19.65,4.85,30.73a271.52,271.52,0,0,1,2.48,35,168.41,168.41,0,0,1-4.76,41.18,132.13,132.13,0,0,1-11.83,30.69c-8.13,15.08-19.85,29.66-36.66,43.13S67.48,412.18,39,422.55L41,434c26.15-9.53,49.23-21.43,66.21-33.9a165.86,165.86,0,0,0,31.51-29.88A141.64,141.64,0,0,0,164.28,321a176.07,176.07,0,0,0,6.62-49.56,283.08,283.08,0,0,0-2.58-36.46c-1.49-11.4-3.56-23-5.12-32.23l-11.07,3Z" transform="translate(-39.02 -183.24)"/></g></svg>