<?xml version="1.0" encoding="utf-8"?>
<!-- Generator: Adobe Illustrator 26.0.1, SVG Export Plug-In . SVG Version: 6.00 Build 0)  -->
<svg version="1.1" id="ZONES" xmlns="http://www.w3.org/2000/svg" xmlns:xlink="http://www.w3.org/1999/xlink" x="0px" y="0px"
	 viewBox="0 0 4096 4096" style="enable-background:new 0 0 4096 4096;" xml:space="preserve">
<style type="text/css">
	.st0{fill:#717171;}
	.st1{fill:#CF1319;}
</style>
<path id="BG" class="st0" d="M0,4092c1354.4,0,2708.8,0,4063.2-0.1c32.8,0,28.5,4.3,28.6-28.6c0.1-1354.4,0.1-2708.8,0.1-4063.2
	c1.3,0,3.2-0.5,3.8,0.1c0.7,0.7,0.1,2.5,0.1,3.8c0,4.7,0,9.3,0,14c0,1359.3,0,2718.5,0,4077.8c-1359.3,0-2718.5,0-4077.8,0
	c-6,0-12,0-18-0.2C0,4095.8,0,4093.3,0,4092z"/>
<g id="BASE">
	<path class="st1" d="M2541.3,2431.2c-3.7-241.7-7.3-483.4-11-725.1c-0.1-4.7-0.2-9.3-0.2-14c0.2-26.4-4.3-21.9,18.2-45.6
		c25.2-26.7,49.2-54.2,67.8-86.1c27.9-47.7,45.3-99.2,56.4-152.9c9.1-43.7,14.1-88,17.1-132.6c8.7-131,8.8-262.2,8.4-393.4
		c-0.1-15.3-0.3-30.6-0.3-46c0-6,0.6-12,0.5-18c-0.1-10.5,4.6-17.6,14-22.1c6-2.9,11.7-6.4,17.6-9.4c29.8-14.8,59.4-30.2,89.6-44.1
		c31.2-14.5,24.9-14.9,51.8,4.1c46.4,32.8,94.7,61.9,147.3,83.6c71.2,29.3,145,44.3,222.2,40.5c69.3-3.4,135.2-20.9,198.5-49.1
		c45.2-20.1,87.5-45.2,128.4-72.8c32.3-21.8,24.3-20.8,58.8-4.7c30.7,14.4,61.3,29.3,91.3,45.1c30.5,16.1,26.5,11.4,26.7,44.2
		c0.7,80.6-0.3,161.2,0.9,241.7c0.9,65.2,2.7,130.5,7.4,195.6c4.6,63.8,12.3,127.2,30.6,188.9c20.3,68.3,54.2,128.3,103.8,179.8
		c31.5,32.7,25.5,20.4,25,62.6c-1.6,139.8-3.7,279.7-5.7,419.5c-2.5,174.5-5,348.9-7.5,523.4c-2.6,176.5-5.2,352.9-7.7,529.4
		c-0.1,8.7-1,17.3-2.8,25.7c-2.3,10.6-3.1,11.9-14.3,13c-10.6,1.1-21.3,1.5-31.9,1.5c-145.2,0.1-290.4,0-435.5,0
		c-268.4,0-536.8,0-805.2,0c-12,0-24-0.1-35.9-1.9c-6-0.9-9.5-4-10.8-10c-2.2-9.8-2.4-19.8-2.5-29.8c-1.3-90.6-2.6-181.1-4-271.7
		c-2.4-156.5-4.9-313-7.3-469.4C2541.1,2431.2,2541.2,2431.2,2541.3,2431.2z"/>
	<path class="st1" d="M1168.1,3214.1c-169.1,0-338.3,0-507.4-0.1c-11.3,0-22.6-1.1-33.9-1.8c-5.9-0.4-10-3.3-11.2-9.4
		c-1.4-7.2-3.3-14.3-3.9-21.6c-2.9-37.2-5.4-74.4-8.1-111.5c-3.6-50.5-7.4-100.9-11-151.4c-3.1-43.2-6-86.3-9.1-129.5
		c-3.6-49.8-7.2-99.6-10.8-149.4c-3.2-44.5-6.2-89-9.4-133.5c-3.5-48.5-7.1-96.9-10.5-145.4c-3.2-44.5-6.2-89-9.4-133.5
		c-3.5-48.5-7-96.9-10.5-145.4c-3.2-45.2-6.3-90.3-9.6-135.5c-4.8-67.1-9.7-134.1-14.5-201.2c-0.7-9.3-0.5-18.6-1.1-27.9
		c-0.6-8.3,3-13.9,9.8-18.1c6.2-3.8,12.3-8,18.5-11.9c24.3-15.2,48.9-29.7,72.8-45.5c36.4-24.1,68.2-53.3,92.4-90
		c26.1-39.5,41.9-83.1,49.6-129.6c8.6-51.6,7.6-103.4,2.1-155.3c-8.7-82.4-28.6-162.5-51.3-241.9c-13-45.4-27.3-90.4-40.8-135.7
		c-3.2-10.8-5.4-21.9-8.1-32.9c-1.5-6.1,0.8-10.3,6.2-13.1c7.7-3.9,15.2-8.4,23.1-11.7c32-13.2,64.1-26.2,96.2-38.9
		c7.4-2.9,15.2-4.7,22.8-7.2c7.3-2.4,12.9-1.3,16.8,6c4.4,8.2,9.6,16,13.7,24.3c32.4,66.9,72.3,128.8,120.9,185.1
		c18.8,21.7,38.8,42.1,60.7,60.7c21.9,18.6,45.7,34.4,71.8,46.6c55.2,25.6,110.6,25.9,166.1,1c32.5-14.6,61-35.2,87.1-59.3
		c47.4-43.6,86.4-94.1,120.7-148.3c17.8-28.1,33.9-57.3,48.2-87.4c4.3-9,10-17.2,15.3-25.7c2.4-3.9,6.1-5.1,10.4-3.9
		c8.3,2.3,16.8,4.3,24.8,7.5c33.4,13.2,66.7,26.7,100,40.3c6.7,2.8,13,6.7,19.6,9.8c7.1,3.3,9.9,8.4,8,16.1
		c-2.8,10.9-5.1,22-8.5,32.8c-22.9,73.7-45.5,147.5-63.8,222.6c-13.1,53.8-24.1,107.9-28.9,163c-5.2,59.2-5,118.3,9.8,176.6
		c18,71.1,55.8,128.9,114.2,173.3c28.1,21.4,58.5,39.3,88.7,57.7c39.7,24.2,35,16.2,32.4,60.9c-4.4,74.4-10.4,148.7-15.7,223.1
		c-6.7,93.6-13.4,187.2-20.1,280.9c-6.6,93-13.3,185.9-19.9,278.9c-6.7,93.6-13.4,187.2-20.1,280.9c-5.3,73.7-10.5,147.4-15.8,221.1
		c-3.6,50.5-7.3,100.9-11.2,151.4c-0.6,7.2-2.5,14.4-3.8,21.6c-1.1,6.2-5.2,9.1-11.1,9.5c-11.3,0.8-22.6,1.9-33.9,1.9
		C1507.7,3214.1,1337.9,3214,1168.1,3214.1z"/>
</g>
<g id="SIDES">
	<path class="st1" d="M109.7,1701.3c13.2,3.3,23.4,10.5,32.9,18.9c24.6,21.7,51.4,40.2,81.3,53.8c12.7,5.8,25.6,13,39,14.7
		c12.1,1.5,23.6-7.7,35.3-12.2c29.8-11.5,58.9-24.8,86.5-41c8.1-4.8,16.9-7.8,26-10c4.5-1.1,7.8-0.2,9.5,4.6
		c3.6,10.1,6.4,20.2,7.1,31c5.6,81.7,11.4,163.4,17.2,245c5.2,73.7,10.6,147.4,15.9,221.1c5.3,73,10.5,146.1,15.8,219.1
		c6,81.7,12.2,163.3,18.1,244.9c3.4,46.5,6.3,93,9.6,139.4c4.6,63.7,9.6,127.4,14.2,191.2c3.2,44.5,6.2,89,9.4,133.5
		c1,13.9,3,27.9,3.1,41.8c0.3,33.4,1.3,33.9-31.8,36.3c-48.5,3.5-97,5.2-145.6,7.7c-65.8,3.4-131.6,6.7-197.4,10.1
		c-18.6,0.9-37.2,2.9-55.8,0.9c-11.7-1.2-13.7-2.9-15.1-14.6c-1.1-9.2-1.4-18.6-1.3-27.9c1.4-135.1,2.9-270.3,4.4-405.4
		c1.8-159.1,3.6-318.2,5.4-477.3c1.3-115.2,2.7-230.3,4-345.5c0.9-79.9,2-159.8,2.7-239.7C100.3,1727.5,102.6,1714.1,109.7,1701.3z"
		/>
	<path class="st1" d="M2327.9,1670.2c8,12.6,9.8,25.5,9.9,39c0.5,49.3,1.2,98.5,1.8,147.8c1.2,106.5,2.3,213,3.5,319.5
		c1.3,114.5,2.6,229,4,343.5c1.5,122.5,3,245,4.4,367.4c1.1,99.2,2.2,198.4,3.1,297.6c0.1,8.6-0.8,17.3-1.9,25.8
		c-1,7.2-3.1,9.2-10.2,10c-7.9,0.8-16,1.6-23.9,1.3c-51.9-2.3-103.7-5-155.6-7.6c-29.9-1.5-59.8-3.1-89.7-4.5
		c-40.6-1.9-81.1-3.9-121.7-5.6c-11.4-0.5-22.5-2.1-33.6-4.4c-4.9-1-8.3-3.6-9-9.2c-1-7.9-2.1-15.8-1.5-23.8
		c7.3-97.6,14.5-195.1,21.5-292.7c4.7-65.1,9-130.1,13.7-195.2c5.9-82.3,12.2-164.6,18.2-246.9c4.7-65.1,9-130.1,13.7-195.2
		c4.6-63.7,9.5-127.4,14.1-191.2c3.3-45.1,6.3-90.3,9.5-135.4c4.2-59.8,8.5-119.5,12.8-179.2c0.8-10.7,3.3-21,7-31.1
		c1.7-4.6,5-6.1,9.4-5.1c9,2.3,17.8,5.2,26,10c35.2,20.5,72.7,36,110.5,50.8c7.4,2.9,13.5,2.9,21,0.3c42-14.9,79.1-37.9,112.3-67.4
		C2306.3,1680.4,2316.6,1675.3,2327.9,1670.2z"/>
</g>
<g id="TRIMMING">
	<path class="st1" d="M1205.4,3514.5c-94.6,0-189.1-0.2-283.7,0c-216.4,0.5-432.8,1.1-649.2,1.8c-11.4,0-22.6-0.4-33.7-2.9
		c-5.4-1.2-8.1-4.2-9.1-9.2c-3.1-15.2-3.2-30.4,0.2-45.6c1.3-5.8,4-9.2,10.3-10.3c12.5-2.2,25.1-2.9,37.8-2.9
		c151.8-0.2,303.6-0.4,455.5-0.7c247-0.4,494.1-0.8,741.1-1.4c216.4-0.6,432.8-1.5,649.2-2.1c16.6-0.1,33.3-1,49.7,2.7
		c5.2,1.2,8.1,3.6,9.4,8.8c4,15.8,4,31.6,0.6,47.5c-1.1,5.1-4.1,7.8-9.4,8.7c-10.5,1.9-21,2.9-31.7,2.9
		c-156.5,0.2-313,0.7-469.5,0.9c-155.8,0.2-311.6,0-467.5,0C1205.4,3513.3,1205.4,3513.9,1205.4,3514.5z"/>
	<path class="st1" d="M2139.8,591.6c-264.3,0-528.6,0-792.9,0c-10,0-20,0.5-29.9-1.6c-12.5-2.6-12.4-2.9-15-14.8
		c-3-14-1.9-27.7,0.6-41.6c1.1-6.3,4.6-8.9,10.6-9.8c12.5-2,25.1-2.5,37.8-2.5c233,0.1,466,0.1,699.1,0.1c294.9,0,589.9,0,884.8,0
		c12.7,0,25.3,0.7,37.8,3c4.4,0.8,7,3.2,8.1,7.6c4.1,16.5,4,32.9,0,49.4c-1.1,4.5-4.1,6.3-8.2,7.4c-9.8,2.6-19.7,3-29.7,3
		c-62.6-0.1-125.2,0-187.7,0C2549.9,591.6,2344.9,591.6,2139.8,591.6z"/>
	<path class="st1" d="M3200.4,3431.1c207.6,0,415.3,0,622.9,0.1c10.6,0,21.3,0.8,31.8,1.9c8.7,0.9,10.6,3,12,10.8
		c2.6,14.6,2.3,29.1-0.3,43.7c-1.2,6.9-5.3,10-11.9,11.3c-9.9,1.9-19.8,1.9-29.8,1.9c-108.5,0-217,0-325.4,0
		c-307.5,0-614.9,0-922.4,0c-11.3,0-22.6,0.2-33.8-2.3c-5.9-1.3-9.1-4.2-10.4-10.3c-3-14.5-4-28.9-0.5-43.5
		c2.2-9.4,2.8-10.6,13.1-11.7c10.6-1.1,21.2-1.8,31.8-1.8c153.7-0.1,307.5-0.1,461.2-0.1C3092.6,3431.1,3146.5,3431.1,3200.4,3431.1
		z"/>
	<path class="st1" d="M695.2,1302.3c0.1,55.2-8.5,104-28.7,150.5c-15.8,36.4-38.2,68.4-65.5,97.1c-27.1,28.5-57.3,53.7-87.6,78.6
		c-4.6,3.8-9.9,6.8-15.1,9.5c-14.4,7.5-16,6.9-22.7-6.9c-6.8-14-8.7-29.2-10.9-44.3c-0.6-4.3,1.4-7.7,4.4-10.6
		c6.3-5.9,12.5-12,19-17.6c23.8-20.3,47.6-40.6,68.5-64c42-46.9,64-101.9,67.5-164.6c3.3-58.6-6.8-115.3-22.9-171.2
		c-19.7-68.6-46.9-134.3-77.1-198.9c-21.7-46.4-44.6-92.2-66.8-138.3c-4.6-9.6-8.3-19.5-12.4-29.4c-2.6-6.3-1.4-11.5,4-16
		c11.9-9.9,24.7-17.9,39.5-22.8c5.4-1.8,9-0.5,12,3.9c4.4,6.6,9.4,13,13,20.1c39.9,79,79.1,158.3,112.5,240.3
		c25.1,61.7,46.7,124.5,59.1,190.2C691.2,1240.7,695.4,1273.6,695.2,1302.3z"/>
	<path class="st1" d="M1655,1302.2c1-52.2,7.4-103.6,17.2-154.7c15.8-82.5,39.1-163.1,63.5-243.3c6.2-20.4,12.3-40.8,19-61
		c2.9-8.8,7.2-17.1,10.8-25.7c2.4-5.6,6-8.1,12.5-7.2c16.2,2.3,30.7,8.6,44.1,17.6c3.7,2.5,4.9,6,4.6,10.3
		c-0.5,10.1-3.3,19.7-6.2,29.2c-16.2,54.2-33,108.2-48.4,162.7c-17.3,60.9-31.5,122.5-40,185.3c-7.1,53-9.8,106.1-2,159.3
		c6.3,42.7,19.7,82.7,43.7,119c15.2,23,34.1,42.6,55.4,59.9c20.7,16.8,43.2,31.1,66,44.9c8,4.8,15.5,10.4,23.8,14.6
		c12.6,6.3,15.9,16.3,14.9,29.5c-1,13.3-1.3,26.6-6.8,39.1c-2.8,6.3-4.3,7.4-10.5,5.8c-8.4-2.2-16.7-4.6-24.2-9.1
		c-32.6-19.4-65.2-38.7-95.9-61.3c-75.1-55.5-118.3-130.1-134.2-221.4C1657,1364.7,1655.2,1333.5,1655,1302.2z"/>
	<path class="st1" d="M2432.1,1667.9c-5.4-7.9-8.4-16.2-9-24.7c-1-15.2-0.4-30.6-0.5-45.9c0-4.9,2-9,5-12.7c2.1-2.6,4.1-5.2,6.3-7.7
		c42.5-48.8,67.9-106.1,83.1-168.4c11.4-46.6,17.3-94.1,20.7-142c10-138.8,9-277.9,8.8-416.9c0-9.9,1-19.9,1.7-29.8
		c0.3-4.1,2.1-7.5,5.8-9.9c14.6-9.5,29.7-17.7,47.1-20.8c7-1.3,9.6,0.3,11.4,7.4c2.8,11,4.5,22,4.5,33.5
		c0.3,99.8,0.6,199.6-2.6,299.4c-1.9,57.9-3.7,115.7-9.3,173.3c-6.1,62.4-17,123.8-38.4,183c-22.6,62.4-57.7,116.6-104.2,163.6
		C2453.8,1657.9,2444,1664.2,2432.1,1667.9z"/>
	<path class="st1" d="M3823.9,1037.5c0-75.2,0-148.4,0-221.7c0-7.3,0.1-14.6,1.9-21.8c4.4-18.1,5.1-18.7,22.4-14.3
		c2.6,0.7,5.2,1.3,7.5,2.5c42,20.9,37.9,13.8,37.5,55.3c-1,105.9,0.7,211.8,3.8,317.6c1.8,61.9,5.3,123.7,15,185
		c8.2,51.5,20.8,101.7,43.9,148.8c13.2,27,29,52.5,49.3,74.8c9.7,10.7,13.8,22.2,12.8,36.3c-0.6,8.6-0.6,17.3-0.6,26
		c-0.1,6.1-1.1,11.9-2.9,17.6c-4.7,14.4-5.9,14.8-19.1,7.5c-7.1-3.9-13.1-8.9-18.8-14.6c-57.1-56.8-94.3-125-115.8-202.2
		c-12.7-45.7-20.3-92.2-24.9-139.4C3827.5,1208.6,3826.1,1122.1,3823.9,1037.5z"/>
	<path class="st1" d="M420.3,1629.1c-0.2,20.6,2.6,17.4-19.2,31.3c-23.6,15.1-48.8,27.2-74.7,37.9c-15.4,6.4-30.8,12.7-46.3,18.7
		c-18.8,7.2-18.9,7.1-38.4,0.4c-31.7-10.8-61-26.6-88.2-46.1c-16.8-12.1-32.6-25.2-47.2-40c-6.1-6.2-9.1-12.9-9-21.3
		c0.3-14,0.2-28,0.8-41.9c0.4-9.4,3.2-18.2,8.9-25.9c10.5-0.4,16.2,8,23.5,13.2c4.2,3,7.2,7.8,10.8,11.7
		c30.5,33.3,66,59.8,107.5,78.1c7.1,3.1,13.1,4,20.8,0.9c35.8-14.6,71.1-30.2,104-50.7c9.7-6,20-10.5,31.2-13
		c3.7-0.8,6.4,0.8,8.1,4.1C419.3,1598.7,420.1,1612,420.3,1629.1z"/>
	<path class="st1" d="M2334.8,1526.8c0.8,36.2,5.2,29.7-24.2,56.2c-35.9,32.4-76.8,56.9-123.1,72.2c-10.7,3.5-20.3,3.6-30.9-0.4
		c-41.1-15.6-81.8-32.1-119.5-55c-27.7-16.7-24.4-12.8-23.9-44c0.2-11.5,2-22.5,6.9-32.9c1.6-3.3,4.5-4.9,8.2-4
		c10.4,2.5,20.2,6.2,29.4,12c33.4,20.8,69.2,36.9,105.7,51.7c7.6,3.1,13.6,2.4,20.7-0.8c42.7-18.8,79.3-46.1,110-81.1
		c7.1-8.1,15.2-14.8,24.3-20.5c5.2-3.3,8.4-2.2,10.9,3.5c3.2,7.4,5.8,14.9,5.6,23.1C2334.7,1513.4,2334.8,1520.1,2334.8,1526.8z"/>
</g>
</svg>
