<svg id="ZONES" xmlns="http://www.w3.org/2000/svg" viewBox="0 0 4096 4095.9"><defs><style>.cls-1{fill:#717171;}.cls-2{fill:#fff;}.cls-3{fill:#00326d;}.cls-4{fill:#0068ff;}</style></defs><path id="BG" class="cls-1" d="M0,4092q2031.6,0,4063.2-.1c32.8,0,28.5,4.3,28.6-28.6q.15-2031.6.1-4063.2c1.3,0,3.2-.5,3.8.1s.1,2.5.1,3.8V4095.8H18c-6,0-12,0-18-.2Z" transform="translate(0 0.1)"/><path id="BASE" class="cls-2" d="M3887.1,1638.8c-44.86-46.58-76.88-100.11-97.61-160.45q-3.28-9.55-6.19-19.35c-18.3-61.7-26-125.1-30.6-188.9-4.7-65.1-6.5-130.4-7.4-195.6-1.2-80.5-.2-161.1-.9-241.7-.2-32.8,3.8-28.1-26.7-44.2-30-15.8-60.6-30.7-91.3-45.1-34.5-16.1-26.5-17.1-58.8,4.7-40.9,27.6-83.2,52.7-128.4,72.8-63.3,28.2-129.2,45.7-198.5,49.1-77.2,3.8-151-11.2-222.2-40.5-52.6-21.7-100.9-50.8-147.3-83.6-26.9-19-20.6-18.6-51.8-4.1-30.2,13.9-59.8,29.3-89.6,44.1-5.9,3-11.6,6.5-17.6,9.4-9.4,4.5-14.1,11.6-14,22.1.1,6-.5,12-.5,18,0,15.4.2,30.7.3,46,.4,131.2.3,262.4-8.4,393.4-3,44.6-8,88.9-17.1,132.6a579.79,579.79,0,0,1-19.15,70.85,450.77,450.77,0,0,1-37.25,82.05c-18.6,31.9-42.6,59.4-67.8,86.1-22.5,23.7-18,19.2-18.2,45.6,0,4.7.1,9.3.2,14q.12,8.16.25,16.31l.09,6.19q1.83,122,3.68,244.06,3.46,229.28,7,458.54a.37.37,0,0,1-.3-.1q3.7,234.65,7.3,469.4,2,135.8,4,271.7c.1,10,.3,20,2.5,29.8,1.3,6,4.8,9.1,10.8,10,11.9,1.8,23.9,1.9,35.9,1.9h805.2q217.7.15,435.5,0a308.94,308.94,0,0,0,31.9-1.5c11.2-1.1,12-2.4,14.3-13a129.06,129.06,0,0,0,2.8-25.7q3.8-264.64,7.7-529.4,3.75-261.65,7.5-523.4,1.17-74.13,2.22-148.24,1.74-122,3.16-244.06c0-2.07,0-4.13.08-6.19l.24-21C3912.6,1659.2,3918.6,1671.5,3887.1,1638.8ZM1796.6,1684c-30.2-18.4-60.6-36.3-88.7-57.7-51.3-39-86.7-88.34-106.75-148Q1597,1466,1593.7,1453c-14.8-58.3-15-117.4-9.8-176.6,4.8-55.1,15.8-109.2,28.9-163,18.3-75.1,40.9-148.9,63.8-222.6,3.4-10.8,5.7-21.9,8.5-32.8,1.9-7.7-.9-12.8-8-16.1-6.6-3.1-12.9-7-19.6-9.8q-49.9-20.51-100-40.3c-8-3.2-16.5-5.2-24.8-7.5-4.3-1.2-8,0-10.4,3.9-5.3,8.5-11,16.7-15.3,25.7a824.17,824.17,0,0,1-48.2,87.4c-34.3,54.2-73.3,104.7-120.7,148.3-26.1,24.1-54.6,44.7-87.1,59.3q-83.3,37.39-166.1-1a320.46,320.46,0,0,1-71.8-46.6,561.11,561.11,0,0,1-60.7-60.7c-48.6-56.3-88.5-118.2-120.9-185.1-4.1-8.3-9.3-16.1-13.7-24.3-3.9-7.3-9.5-8.4-16.8-6-7.6,2.5-15.4,4.3-22.8,7.2Q730,811.5,682,831.3c-7.9,3.3-15.4,7.8-23.1,11.7-5.4,2.8-7.7,7-6.2,13.1,2.7,11,4.9,22.1,8.1,32.9,13.5,45.3,27.8,90.3,40.8,135.7,22.7,79.4,42.6,159.5,51.3,241.9,5.5,51.9,6.5,103.7-2.1,155.3a358.77,358.77,0,0,1-14,56.45,314.49,314.49,0,0,1-35.62,73.15c-24.2,36.7-56,65.9-92.4,90-23.9,15.8-48.5,30.3-72.8,45.5-6.2,3.9-12.3,8.1-18.5,11.9-6.8,4.2-10.4,9.8-9.8,18.1.12,1.8.2,3.6.27,5.41.08,2.06.13,4.13.19,6.19.13,5.43.23,10.87.64,16.3q7.3,100.55,14.5,201.2,1,13.29,1.91,26.56,3.91,54.48,7.69,108.94,5.25,72.65,10.5,145.4c3.2,44.5,6.2,89,9.4,133.5,3.4,48.5,7,96.9,10.5,145.4,3.2,44.5,6.2,89,9.4,133.5l10.8,149.4c3.1,43.2,6,86.3,9.1,129.5,3.6,50.5,7.4,100.9,11,151.4,2.7,37.1,5.2,74.3,8.1,111.5.6,7.3,2.5,14.4,3.9,21.6,1.2,6.1,5.3,9,11.2,9.4,11.3.7,22.6,1.8,33.9,1.8q253.75.11,507.4.1,254.75,0,509.3.1c11.3,0,22.6-1.1,33.9-1.9,5.9-.4,10-3.3,11.1-9.5,1.3-7.2,3.2-14.4,3.8-21.6q5.8-75.64,11.2-151.4,7.8-110.55,15.8-221.1,10.1-140.5,20.1-280.9,10-139.4,19.9-278.9,9.93-138.18,19.77-276.24l.33-4.66c5.3-74.4,11.3-148.7,15.7-223.1.37-6.44.79-11.79,1.12-16.3.16-2.26.3-4.32.39-6.19C1831.55,1702.15,1827.7,1703,1796.6,1684Z" transform="translate(0 0.1)"/><path id="SIDES" class="cls-2" d="M530.6,3197.1c-.1-13.9-2.1-27.9-3.1-41.8-3.2-44.5-6.2-89-9.4-133.5-4.6-63.8-9.6-127.5-14.2-191.2-3.3-46.4-6.2-92.9-9.6-139.4-5.9-81.6-12.1-163.2-18.1-244.9q-7.8-109.61-15.8-219.1-8.1-110.55-15.9-221.1-1.2-16.72-2.39-33.44-7.56-105.73-14.81-211.56c-.7-10.8-3.5-20.9-7.1-31a10.41,10.41,0,0,0-.65-1.5c-1.82-3.48-4.87-4.07-8.85-3.1-3.65.88-7.25,1.89-10.78,3.1a81.3,81.3,0,0,0-15.22,6.9c-27.6,16.2-56.7,29.5-86.5,41-11.7,4.5-23.2,13.7-35.3,12.2-13.4-1.7-26.3-8.9-39-14.7-26-11.81-49.59-27.31-71.46-45.4q-3.69-3-7.31-6.19l-2.53-2.21c-9.5-8.4-19.7-15.6-32.9-18.9a72.67,72.67,0,0,0-7.69,21.11q-.63,3.08-1,6.19a115.25,115.25,0,0,0-.88,13.1c-.67,77-1.72,154-2.6,231,0,2.91-.07,5.83-.1,8.74q-2.06,172.7-4,345.5L88,2804.2q-2.3,202.8-4.4,405.4a216.65,216.65,0,0,0,1.3,27.9c1.4,11.7,3.4,13.4,15.1,14.6,18.6,2,37.2,0,55.8-.9q98.7-5,197.4-10.1c48.6-2.5,97.1-4.2,145.6-7.7C531.9,3231,530.9,3230.5,530.6,3197.1Zm1820.9-309.7q-2.14-183.65-4.4-367.4-2-171.75-4-343.5-1.08-101.92-2.21-203.84L2339.6,1857c-.52-42.83-1.12-85.59-1.58-128.4q-.06-3.09-.07-6.19-.09-6.6-.15-13.21c-.1-13.5-1.9-26.4-9.9-39-11.3,5.1-21.6,10.2-30.7,18.5a365.38,365.38,0,0,1-44.13,33.71q-4.91,3.18-9.92,6.19a323.28,323.28,0,0,1-58.25,27.5c-7.5,2.6-13.6,2.6-21-.3-21.85-8.56-43.6-17.35-64.86-27.2q-6.54-3-13-6.19c-11.06-5.43-22-11.19-32.64-17.41-8.2-4.8-17-7.7-26-10-4.4-1-7.7.5-9.4,5.1a113.47,113.47,0,0,0-5.92,22.31c-.34,2-.62,4.12-.83,6.19-.1.86-.18,1.73-.25,2.6q-6.49,89.5-12.8,179.2-2.21,31.11-4.33,62.26-2.53,36.58-5.17,73.14c-4.6,63.8-9.5,127.5-14.1,191.2-4.7,65.1-9,130.1-13.7,195.2-6,82.3-12.3,164.6-18.2,246.9-4.7,65.1-9,130.1-13.7,195.2q-10.55,146.29-21.5,292.7c-.6,8,.5,15.9,1.5,23.8.7,5.6,4.1,8.2,9,9.2a210,210,0,0,0,33.6,4.4c40.6,1.7,81.1,3.7,121.7,5.6,29.9,1.4,59.8,3,89.7,4.5,51.9,2.6,103.7,5.3,155.6,7.6,7.9.3,16-.5,23.9-1.3,7.1-.8,9.2-2.8,10.2-10a185.72,185.72,0,0,0,1.9-25.8Q2353.15,3036.2,2351.5,2887.4Z" transform="translate(0 0.1)"/><path id="TRIMMING" class="cls-3" d="M1205.4,3514.5c-94.6,0-189.1-.2-283.7,0q-324.6.75-649.2,1.8c-11.4,0-22.6-.4-33.7-2.9-5.4-1.2-8.1-4.2-9.1-9.2a107.85,107.85,0,0,1,.2-45.6c1.3-5.8,4-9.2,10.3-10.3a216.56,216.56,0,0,1,37.8-2.9q227.7-.3,455.5-.7,370.5-.6,741.1-1.4,324.6-.9,649.2-2.1c16.6-.1,33.3-1,49.7,2.7,5.2,1.2,8.1,3.6,9.4,8.8a103,103,0,0,1,.6,47.5c-1.1,5.1-4.1,7.8-9.4,8.7a176.5,176.5,0,0,1-31.7,2.9q-234.75.3-469.5.9-233.7.3-467.5,0ZM2139.8,591.6H1346.9c-10,0-20,.5-29.9-1.6-12.5-2.6-12.4-2.9-15-14.8-3-14-1.9-27.7.6-41.6,1.1-6.3,4.6-8.9,10.6-9.8a239,239,0,0,1,37.8-2.5q349.5.15,699.1.1h884.8a208.11,208.11,0,0,1,37.8,3c4.4.8,7,3.2,8.1,7.6a102,102,0,0,1,0,49.4c-1.1,4.5-4.1,6.3-8.2,7.4-9.8,2.6-19.7,3-29.7,3q-93.9-.15-187.7,0Q2447.25,591.5,2139.8,591.6ZM3200.4,3431.1q311.4,0,622.9.1a307.12,307.12,0,0,1,31.8,1.9c8.7.9,10.6,3,12,10.8a123.39,123.39,0,0,1-.3,43.7c-1.2,6.9-5.3,10-11.9,11.3-9.9,1.9-19.8,1.9-29.8,1.9H2577.3c-11.3,0-22.6.2-33.8-2.3-5.9-1.3-9.1-4.2-10.4-10.3-3-14.5-4-28.9-.5-43.5,2.2-9.4,2.8-10.6,13.1-11.7a307.17,307.17,0,0,1,31.8-1.8q230.55-.15,461.2-.1ZM695.2,1302.3c.1,55.2-8.5,104-28.7,150.5-15.8,36.4-38.2,68.4-65.5,97.1-27.1,28.5-57.3,53.7-87.6,78.6a85.19,85.19,0,0,1-15.1,9.5c-14.4,7.5-16,6.9-22.7-6.9-6.8-14-8.7-29.2-10.9-44.3-.6-4.3,1.4-7.7,4.4-10.6,6.3-5.9,12.5-12,19-17.6,23.8-20.3,47.6-40.6,68.5-64,42-46.9,64-101.9,67.5-164.6,3.3-58.6-6.8-115.3-22.9-171.2-19.7-68.6-46.9-134.3-77.1-198.9-21.7-46.4-44.6-92.2-66.8-138.3-4.6-9.6-8.3-19.5-12.4-29.4-2.6-6.3-1.4-11.5,4-16,11.9-9.9,24.7-17.9,39.5-22.8,5.4-1.8,9-.5,12,3.9,4.4,6.6,9.4,13,13,20.1,39.9,79,79.1,158.3,112.5,240.3,25.1,61.7,46.7,124.5,59.1,190.2C691.2,1240.7,695.4,1273.6,695.2,1302.3Zm959.8-.1c1-52.2,7.4-103.6,17.2-154.7,15.8-82.5,39.1-163.1,63.5-243.3,6.2-20.4,12.3-40.8,19-61,2.9-8.8,7.2-17.1,10.8-25.7,2.4-5.6,6-8.1,12.5-7.2,16.2,2.3,30.7,8.6,44.1,17.6,3.7,2.5,4.9,6,4.6,10.3-.5,10.1-3.3,19.7-6.2,29.2-16.2,54.2-33,108.2-48.4,162.7-17.3,60.9-31.5,122.5-40,185.3-7.1,53-9.8,106.1-2,159.3,6.3,42.7,19.7,82.7,43.7,119,15.2,23,34.1,42.6,55.4,59.9,20.7,16.8,43.2,31.1,66,44.9,8,4.8,15.5,10.4,23.8,14.6,12.6,6.3,15.9,16.3,14.9,29.5s-1.3,26.6-6.8,39.1c-2.8,6.3-4.3,7.4-10.5,5.8-8.4-2.2-16.7-4.6-24.2-9.1-32.6-19.4-65.2-38.7-95.9-61.3-75.1-55.5-118.3-130.1-134.2-221.4-5.3-31-7.1-62.2-7.3-93.5Zm777.1,365.7a49.76,49.76,0,0,1-9-24.7c-1-15.2-.4-30.6-.5-45.9,0-4.9,2-9,5-12.7,2.1-2.6,4.1-5.2,6.3-7.7,42.5-48.8,67.9-106.1,83.1-168.4,11.4-46.6,17.3-94.1,20.7-142,10-138.8,9-277.9,8.8-416.9,0-9.9,1-19.9,1.7-29.8a12.28,12.28,0,0,1,5.8-9.9c14.6-9.5,29.7-17.7,47.1-20.8,7-1.3,9.6.3,11.4,7.4A134.84,134.84,0,0,1,2617,830c.3,99.8.6,199.6-2.6,299.4-1.9,57.9-3.7,115.7-9.3,173.3-6.1,62.4-17,123.8-38.4,183-22.6,62.4-57.7,116.6-104.2,163.6a73.43,73.43,0,0,1-30.4,18.6Zm1391.8-630.4V815.8c0-7.3.1-14.6,1.9-21.8,4.4-18.1,5.1-18.7,22.4-14.3a36.71,36.71,0,0,1,7.5,2.5c42,20.9,37.9,13.8,37.5,55.3-1,105.9.7,211.8,3.8,317.6,1.8,61.9,5.3,123.7,15,185,8.2,51.5,20.8,101.7,43.9,148.8,13.2,27,29,52.5,49.3,74.8,9.7,10.7,13.8,22.2,12.8,36.3-.6,8.6-.6,17.3-.6,26a61.13,61.13,0,0,1-2.9,17.6c-4.7,14.4-5.9,14.8-19.1,7.5a83.25,83.25,0,0,1-18.8-14.6c-57.1-56.8-94.3-125-115.8-202.2-12.7-45.7-20.3-92.2-24.9-139.4-8.4-86.3-9.8-172.8-12-257.4ZM420.3,1629.1c-.2,20.6,2.6,17.4-19.2,31.3-23.6,15.1-48.8,27.2-74.7,37.9-15.4,6.4-30.8,12.7-46.3,18.7-18.8,7.2-18.9,7.1-38.4.4-31.7-10.8-61-26.6-88.2-46.1a366.89,366.89,0,0,1-47.2-40c-6.1-6.2-9.1-12.9-9-21.3.3-14,.2-28,.8-41.9a46,46,0,0,1,8.9-25.9c10.5-.4,16.2,8,23.5,13.2,4.2,3,7.2,7.8,10.8,11.7,30.5,33.3,66,59.8,107.5,78.1,7.1,3.1,13.1,4,20.8.9,35.8-14.6,71.1-30.2,104-50.7a100.55,100.55,0,0,1,31.2-13c3.7-.8,6.4.8,8.1,4.1C419.3,1598.7,420.1,1612,420.3,1629.1Zm1914.5-102.3c.8,36.2,5.2,29.7-24.2,56.2-35.9,32.4-76.8,56.9-123.1,72.2-10.7,3.5-20.3,3.6-30.9-.4-41.1-15.6-81.8-32.1-119.5-55-27.7-16.7-24.4-12.8-23.9-44,.2-11.5,2-22.5,6.9-32.9,1.6-3.3,4.5-4.9,8.2-4a96.38,96.38,0,0,1,29.4,12c33.4,20.8,69.2,36.9,105.7,51.7,7.6,3.1,13.6,2.4,20.7-.8,42.7-18.8,79.3-46.1,110-81.1a108.47,108.47,0,0,1,24.3-20.5c5.2-3.3,8.4-2.2,10.9,3.5,3.2,7.4,5.8,14.9,5.6,23.1-.2,6.6-.1,13.3-.1,20Z" transform="translate(0 0.1)"/><path id="LOWER_LINE" data-name="LOWER LINE" class="cls-3" d="M3606.86,1722.41v250.25h301.76q1.74-122,3.16-244.06c0-2.07,0-4.13.08-6.19Zm-1076.22,6.19q1.83,122,3.68,244.06H2820V1722.41H2530.55Zm-191,128.4c-.52-42.83-1.12-85.59-1.58-128.4q-.06-3.09-.07-6.19h-84.88q-4.91,3.18-9.92,6.19a323.28,323.28,0,0,1-58.25,27.5c-7.5,2.6-13.6,2.6-21-.3-21.85-8.56-43.6-17.35-64.86-27.2q-6.54-3-13-6.19h-74c-.34,2-.62,4.12-.83,6.19-.1.86-.18,1.73-.25,2.6q-6.49,89.5-12.8,179.2-2.21,31.11-4.33,62.26h347ZM508,1722.41c.08,2.06.13,4.13.19,6.19.13,5.43.23,10.87.64,16.3q7.3,100.55,14.5,201.2,1,13.29,1.91,26.56H1813l.33-4.66c5.3-74.4,11.3-148.7,15.7-223.1.37-6.44.79-11.79,1.12-16.3.16-2.26.3-4.32.39-6.19ZM427.3,1761.1c-.7-10.8-3.5-20.9-7.1-31a10.41,10.41,0,0,0-.65-1.5c-1.82-3.48-4.87-4.07-8.85-3.1-3.65.88-7.25,1.89-10.78,3.1a81.3,81.3,0,0,0-15.22,6.9c-27.6,16.2-56.7,29.5-86.5,41-11.7,4.5-23.2,13.7-35.3,12.2-13.4-1.7-26.3-8.9-39-14.7-26-11.81-49.59-27.31-71.46-45.4q-3.69-3-7.31-6.19H102q-.63,3.08-1,6.19a115.25,115.25,0,0,0-.88,13.1c-.67,77-1.72,154-2.6,231H442.11Q434.55,1866.93,427.3,1761.1Z" transform="translate(0 0.1)"/><path id="UPPER_LINE" data-name="UPPER LINE" class="cls-4" d="M3887.1,1638.8c-44.86-46.58-76.88-100.11-97.61-160.45H3606.86V1728.6h304.92c0-2.07,0-4.13.08-6.19l.24-21C3912.6,1659.2,3918.6,1671.5,3887.1,1638.8Zm-1271-78.4c-18.6,31.9-42.6,59.4-67.8,86.1-22.5,23.7-18,19.2-18.2,45.6,0,4.7.1,9.3.2,14q.12,8.16.25,16.31l.09,6.19H2820V1478.35H2653.35A450.77,450.77,0,0,1,2616.1,1560.4Zm-278.15,162q-.09-6.6-.15-13.21c-.1-13.5-1.9-26.4-9.9-39-11.3,5.1-21.6,10.2-30.7,18.5a365.38,365.38,0,0,1-44.13,33.71q-4.91,3.18-9.92,6.19H2338Q2338,1725.51,2338,1722.41Zm-251.91,0c-11.06-5.43-22-11.19-32.64-17.41-8.2-4.8-17-7.7-26-10-4.4-1-7.7.5-9.4,5.1a113.47,113.47,0,0,0-5.92,22.31c-.34,2-.62,4.12-.83,6.19H2099Q2092.5,1725.57,2086,1722.41ZM1796.6,1684c-30.2-18.4-60.6-36.3-88.7-57.7-51.3-39-86.7-88.34-106.75-148H736.82a314.49,314.49,0,0,1-35.62,73.15c-24.2,36.7-56,65.9-92.4,90-23.9,15.8-48.5,30.3-72.8,45.5-6.2,3.9-12.3,8.1-18.5,11.9-6.8,4.2-10.4,9.8-9.8,18.1.12,1.8.2,3.6.27,5.41.08,2.06.13,4.13.19,6.19h1322c.16-2.26.3-4.32.39-6.19C1831.55,1702.15,1827.7,1703,1796.6,1684ZM410.7,1725.5c-3.65.88-7.25,1.89-10.78,3.1h19.63C417.73,1725.12,414.68,1724.53,410.7,1725.5Zm-265.57-3.09-2.53-2.21c-9.5-8.4-19.7-15.6-32.9-18.9a72.67,72.67,0,0,0-7.69,21.11q-.63,3.08-1,6.19h51.46Q148.75,1725.55,145.13,1722.41Z" transform="translate(0 0.1)"/></svg>