<svg id="ZONES" xmlns="http://www.w3.org/2000/svg" viewBox="0 0 4096 4096"><defs><style>.cls-1{fill:#717171;}.cls-2{fill:#fff;}.cls-3{fill:#00c9a7;}</style></defs><path id="BG" class="cls-1" d="M0,4092q2031.6,0,4063.2-.1c32.8,0,28.5,4.3,28.6-28.6q.15-2031.6.1-4063.2c1.3,0,3.2-.5,3.8.1s.1,2.5.1,3.8V4095.8H18c-6,0-12,0-18-.2Z"/><path id="BASE" d="M2541.3,2431.2q-5.55-362.55-11-725.1c-.1-4.7-.2-9.3-.2-14,.2-26.4-4.3-21.9,18.2-45.6,25.2-26.7,49.2-54.2,67.8-86.1,27.9-47.7,45.3-99.2,56.4-152.9,9.1-43.7,14.1-88,17.1-132.6,8.7-131,8.8-262.2,8.4-393.4-.1-15.3-.3-30.6-.3-46,0-6,.6-12,.5-18-.1-10.5,4.6-17.6,14-22.1,6-2.9,11.7-6.4,17.6-9.4,29.8-14.8,59.4-30.2,89.6-44.1,31.2-14.5,24.9-14.9,51.8,4.1,46.4,32.8,94.7,61.9,147.3,83.6,71.2,29.3,145,44.3,222.2,40.5,69.3-3.4,135.2-20.9,198.5-49.1,45.2-20.1,87.5-45.2,128.4-72.8,32.3-21.8,24.3-20.8,58.8-4.7,30.7,14.4,61.3,29.3,91.3,45.1,30.5,16.1,26.5,11.4,26.7,44.2.7,80.6-.3,161.2.9,241.7.9,65.2,2.7,130.5,7.4,195.6,4.6,63.8,12.3,127.2,30.6,188.9,20.3,68.3,54.2,128.3,103.8,179.8,31.5,32.7,25.5,20.4,25,62.6q-2.4,209.7-5.7,419.5-3.75,261.75-7.5,523.4-3.9,264.75-7.7,529.4a129.66,129.66,0,0,1-2.8,25.7c-2.3,10.6-3.1,11.9-14.3,13a309.6,309.6,0,0,1-31.9,1.5q-217.8.15-435.5,0H2601.5c-12,0-24-.1-35.9-1.9-6-.9-9.5-4-10.8-10-2.2-9.8-2.4-19.8-2.5-29.8q-2-135.9-4-271.7-3.6-234.75-7.3-469.4A.37.37,0,0,0,2541.3,2431.2ZM1168.1,3214.1q-253.65,0-507.4-.1c-11.3,0-22.6-1.1-33.9-1.8-5.9-.4-10-3.3-11.2-9.4-1.4-7.2-3.3-14.3-3.9-21.6-2.9-37.2-5.4-74.4-8.1-111.5-3.6-50.5-7.4-100.9-11-151.4-3.1-43.2-6-86.3-9.1-129.5l-10.8-149.4c-3.2-44.5-6.2-89-9.4-133.5-3.5-48.5-7.1-96.9-10.5-145.4-3.2-44.5-6.2-89-9.4-133.5q-5.25-72.75-10.5-145.4c-3.2-45.2-6.3-90.3-9.6-135.5q-7.2-100.65-14.5-201.2c-.7-9.3-.5-18.6-1.1-27.9-.6-8.3,3-13.9,9.8-18.1,6.2-3.8,12.3-8,18.5-11.9,24.3-15.2,48.9-29.7,72.8-45.5,36.4-24.1,68.2-53.3,92.4-90,26.1-39.5,41.9-83.1,49.6-129.6,8.6-51.6,7.6-103.4,2.1-155.3-8.7-82.4-28.6-162.5-51.3-241.9-13-45.4-27.3-90.4-40.8-135.7-3.2-10.8-5.4-21.9-8.1-32.9-1.5-6.1.8-10.3,6.2-13.1,7.7-3.9,15.2-8.4,23.1-11.7q48-19.8,96.2-38.9c7.4-2.9,15.2-4.7,22.8-7.2,7.3-2.4,12.9-1.3,16.8,6,4.4,8.2,9.6,16,13.7,24.3,32.4,66.9,72.3,128.8,120.9,185.1a561.11,561.11,0,0,0,60.7,60.7,320.48,320.48,0,0,0,71.8,46.6q82.8,38.4,166.1,1c32.5-14.6,61-35.2,87.1-59.3,47.4-43.6,86.4-94.1,120.7-148.3a824.61,824.61,0,0,0,48.2-87.4c4.3-9,10-17.2,15.3-25.7,2.4-3.9,6.1-5.1,10.4-3.9,8.3,2.3,16.8,4.3,24.8,7.5q50.1,19.8,100,40.3c6.7,2.8,13,6.7,19.6,9.8,7.1,3.3,9.9,8.4,8,16.1-2.8,10.9-5.1,22-8.5,32.8-22.9,73.7-45.5,147.5-63.8,222.6-13.1,53.8-24.1,107.9-28.9,163-5.2,59.2-5,118.3,9.8,176.6,18,71.1,55.8,128.9,114.2,173.3,28.1,21.4,58.5,39.3,88.7,57.7,39.7,24.2,35,16.2,32.4,60.9-4.4,74.4-10.4,148.7-15.7,223.1q-10,140.4-20.1,280.9-9.9,139.5-19.9,278.9-10,140.4-20.1,280.9-8,110.55-15.8,221.1-5.4,75.75-11.2,151.4c-.6,7.2-2.5,14.4-3.8,21.6-1.1,6.2-5.2,9.1-11.1,9.5-11.3.8-22.6,1.9-33.9,1.9Q1422.85,3214.05,1168.1,3214.1Z"/><path id="SIDES" class="cls-2" d="M109.7,1701.3c13.2,3.3,23.4,10.5,32.9,18.9,24.6,21.7,51.4,40.2,81.3,53.8,12.7,5.8,25.6,13,39,14.7,12.1,1.5,23.6-7.7,35.3-12.2,29.8-11.5,58.9-24.8,86.5-41,8.1-4.8,16.9-7.8,26-10,4.5-1.1,7.8-.2,9.5,4.6,3.6,10.1,6.4,20.2,7.1,31q8.4,122.55,17.2,245,7.8,110.55,15.9,221.1,8,109.5,15.8,219.1c6,81.7,12.2,163.3,18.1,244.9,3.4,46.5,6.3,93,9.6,139.4,4.6,63.7,9.6,127.4,14.2,191.2,3.2,44.5,6.2,89,9.4,133.5,1,13.9,3,27.9,3.1,41.8.3,33.4,1.3,33.9-31.8,36.3-48.5,3.5-97,5.2-145.6,7.7q-98.7,5.1-197.4,10.1c-18.6.9-37.2,2.9-55.8.9-11.7-1.2-13.7-2.9-15.1-14.6a216.32,216.32,0,0,1-1.3-27.9Q85.7,3007,88,2804.2l5.4-477.3q1.95-172.8,4-345.5c.9-79.9,2-159.8,2.7-239.7C100.3,1727.5,102.6,1714.1,109.7,1701.3Zm2218.2-31.1c8,12.6,9.8,25.5,9.9,39,.5,49.3,1.2,98.5,1.8,147.8q1.8,159.75,3.5,319.5,2,171.75,4,343.5,2.25,183.75,4.4,367.4,1.65,148.8,3.1,297.6a185.49,185.49,0,0,1-1.9,25.8c-1,7.2-3.1,9.2-10.2,10-7.9.8-16,1.6-23.9,1.3-51.9-2.3-103.7-5-155.6-7.6-29.9-1.5-59.8-3.1-89.7-4.5-40.6-1.9-81.1-3.9-121.7-5.6a210.23,210.23,0,0,1-33.6-4.4c-4.9-1-8.3-3.6-9-9.2-1-7.9-2.1-15.8-1.5-23.8q10.95-146.4,21.5-292.7c4.7-65.1,9-130.1,13.7-195.2,5.9-82.3,12.2-164.6,18.2-246.9,4.7-65.1,9-130.1,13.7-195.2,4.6-63.7,9.5-127.4,14.1-191.2,3.3-45.1,6.3-90.3,9.5-135.4q6.3-89.7,12.8-179.2a115,115,0,0,1,7-31.1c1.7-4.6,5-6.1,9.4-5.1,9,2.3,17.8,5.2,26,10,35.2,20.5,72.7,36,110.5,50.8,7.4,2.9,13.5,2.9,21,.3,42-14.9,79.1-37.9,112.3-67.4C2306.3,1680.4,2316.6,1675.3,2327.9,1670.2Z"/><path id="TRIMMING" class="cls-3" d="M1205.4,3514.5c-94.6,0-189.1-.2-283.7,0q-324.6.75-649.2,1.8c-11.4,0-22.6-.4-33.7-2.9-5.4-1.2-8.1-4.2-9.1-9.2a107.86,107.86,0,0,1,.2-45.6c1.3-5.8,4-9.2,10.3-10.3a217.31,217.31,0,0,1,37.8-2.9q227.7-.3,455.5-.7,370.5-.6,741.1-1.4,324.6-.9,649.2-2.1c16.6-.1,33.3-1,49.7,2.7,5.2,1.2,8.1,3.6,9.4,8.8a103,103,0,0,1,.6,47.5c-1.1,5.1-4.1,7.8-9.4,8.7a177.17,177.17,0,0,1-31.7,2.9q-234.75.3-469.5.9-233.7.3-467.5,0ZM2139.8,591.6H1346.9c-10,0-20,.5-29.9-1.6-12.5-2.6-12.4-2.9-15-14.8-3-14-1.9-27.7.6-41.6,1.1-6.3,4.6-8.9,10.6-9.8a238.51,238.51,0,0,1,37.8-2.5q349.5.15,699.1.1h884.8a208,208,0,0,1,37.8,3c4.4.8,7,3.2,8.1,7.6a102,102,0,0,1,0,49.4c-1.1,4.5-4.1,6.3-8.2,7.4-9.8,2.6-19.7,3-29.7,3q-93.9-.15-187.7,0Q2447.25,591.5,2139.8,591.6ZM3200.4,3431.1q311.4,0,622.9.1a306.62,306.62,0,0,1,31.8,1.9c8.7.9,10.6,3,12,10.8a123.4,123.4,0,0,1-.3,43.7c-1.2,6.9-5.3,10-11.9,11.3-9.9,1.9-19.8,1.9-29.8,1.9H2577.3c-11.3,0-22.6.2-33.8-2.3-5.9-1.3-9.1-4.2-10.4-10.3-3-14.5-4-28.9-.5-43.5,2.2-9.4,2.8-10.6,13.1-11.7a308.12,308.12,0,0,1,31.8-1.8q230.55-.15,461.2-.1ZM695.2,1302.3c.1,55.2-8.5,104-28.7,150.5-15.8,36.4-38.2,68.4-65.5,97.1-27.1,28.5-57.3,53.7-87.6,78.6a85.06,85.06,0,0,1-15.1,9.5c-14.4,7.5-16,6.9-22.7-6.9-6.8-14-8.7-29.2-10.9-44.3-.6-4.3,1.4-7.7,4.4-10.6,6.3-5.9,12.5-12,19-17.6,23.8-20.3,47.6-40.6,68.5-64,42-46.9,64-101.9,67.5-164.6,3.3-58.6-6.8-115.3-22.9-171.2-19.7-68.6-46.9-134.3-77.1-198.9-21.7-46.4-44.6-92.2-66.8-138.3-4.6-9.6-8.3-19.5-12.4-29.4-2.6-6.3-1.4-11.5,4-16,11.9-9.9,24.7-17.9,39.5-22.8,5.4-1.8,9-.5,12,3.9,4.4,6.6,9.4,13,13,20.1,39.9,79,79.1,158.3,112.5,240.3,25.1,61.7,46.7,124.5,59.1,190.2C691.2,1240.7,695.4,1273.6,695.2,1302.3Zm959.8-.1c1-52.2,7.4-103.6,17.2-154.7,15.8-82.5,39.1-163.1,63.5-243.3,6.2-20.4,12.3-40.8,19-61,2.9-8.8,7.2-17.1,10.8-25.7,2.4-5.6,6-8.1,12.5-7.2,16.2,2.3,30.7,8.6,44.1,17.6,3.7,2.5,4.9,6,4.6,10.3-.5,10.1-3.3,19.7-6.2,29.2-16.2,54.2-33,108.2-48.4,162.7-17.3,60.9-31.5,122.5-40,185.3-7.1,53-9.8,106.1-2,159.3,6.3,42.7,19.7,82.7,43.7,119,15.2,23,34.1,42.6,55.4,59.9,20.7,16.8,43.2,31.1,66,44.9,8,4.8,15.5,10.4,23.8,14.6,12.6,6.3,15.9,16.3,14.9,29.5s-1.3,26.6-6.8,39.1c-2.8,6.3-4.3,7.4-10.5,5.8-8.4-2.2-16.7-4.6-24.2-9.1-32.6-19.4-65.2-38.7-95.9-61.3-75.1-55.5-118.3-130.1-134.2-221.4C1657,1364.7,1655.2,1333.5,1655,1302.2Zm777.1,365.7a49.69,49.69,0,0,1-9-24.7c-1-15.2-.4-30.6-.5-45.9,0-4.9,2-9,5-12.7,2.1-2.6,4.1-5.2,6.3-7.7,42.5-48.8,67.9-106.1,83.1-168.4,11.4-46.6,17.3-94.1,20.7-142,10-138.8,9-277.9,8.8-416.9,0-9.9,1-19.9,1.7-29.8a12.28,12.28,0,0,1,5.8-9.9c14.6-9.5,29.7-17.7,47.1-20.8,7-1.3,9.6.3,11.4,7.4A134.55,134.55,0,0,1,2617,830c.3,99.8.6,199.6-2.6,299.4-1.9,57.9-3.7,115.7-9.3,173.3-6.1,62.4-17,123.8-38.4,183-22.6,62.4-57.7,116.6-104.2,163.6A73.47,73.47,0,0,1,2432.1,1667.9Zm1391.8-630.4V815.8c0-7.3.1-14.6,1.9-21.8,4.4-18.1,5.1-18.7,22.4-14.3a36.7,36.7,0,0,1,7.5,2.5c42,20.9,37.9,13.8,37.5,55.3-1,105.9.7,211.8,3.8,317.6,1.8,61.9,5.3,123.7,15,185,8.2,51.5,20.8,101.7,43.9,148.8,13.2,27,29,52.5,49.3,74.8,9.7,10.7,13.8,22.2,12.8,36.3-.6,8.6-.6,17.3-.6,26a61.19,61.19,0,0,1-2.9,17.6c-4.7,14.4-5.9,14.8-19.1,7.5a83.25,83.25,0,0,1-18.8-14.6c-57.1-56.8-94.3-125-115.8-202.2-12.7-45.7-20.3-92.2-24.9-139.4C3827.5,1208.6,3826.1,1122.1,3823.9,1037.5ZM420.3,1629.1c-.2,20.6,2.6,17.4-19.2,31.3-23.6,15.1-48.8,27.2-74.7,37.9-15.4,6.4-30.8,12.7-46.3,18.7-18.8,7.2-18.9,7.1-38.4.4-31.7-10.8-61-26.6-88.2-46.1a367.08,367.08,0,0,1-47.2-40c-6.1-6.2-9.1-12.9-9-21.3.3-14,.2-28,.8-41.9a46,46,0,0,1,8.9-25.9c10.5-.4,16.2,8,23.5,13.2,4.2,3,7.2,7.8,10.8,11.7,30.5,33.3,66,59.8,107.5,78.1,7.1,3.1,13.1,4,20.8.9,35.8-14.6,71.1-30.2,104-50.7a100.73,100.73,0,0,1,31.2-13c3.7-.8,6.4.8,8.1,4.1C419.3,1598.7,420.1,1612,420.3,1629.1Zm1914.5-102.3c.8,36.2,5.2,29.7-24.2,56.2-35.9,32.4-76.8,56.9-123.1,72.2-10.7,3.5-20.3,3.6-30.9-.4-41.1-15.6-81.8-32.1-119.5-55-27.7-16.7-24.4-12.8-23.9-44,.2-11.5,2-22.5,6.9-32.9,1.6-3.3,4.5-4.9,8.2-4a96.45,96.45,0,0,1,29.4,12c33.4,20.8,69.2,36.9,105.7,51.7,7.6,3.1,13.6,2.4,20.7-.8,42.7-18.8,79.3-46.1,110-81.1a108.43,108.43,0,0,1,24.3-20.5c5.2-3.3,8.4-2.2,10.9,3.5,3.2,7.4,5.8,14.9,5.6,23.1C2334.7,1513.4,2334.8,1520.1,2334.8,1526.8Z"/></svg>
